<?xml version="1.0" encoding="UTF-8"?>
<svg xmlns="http://www.w3.org/2000/svg" xmlns:xlink="http://www.w3.org/1999/xlink" width="0" height="0">
<symbol id="icon--arrow-next" width="40" height="40"><g fill="none" fill-rule="evenodd"><circle cx="20" cy="20" r="19.5"/><path stroke-width="2" d="M17.5 15l5 5-5 5"/></g></symbol>
<symbol id="icon--arrow-previous" width="40" height="40"><g transform="matrix(-1 0 0 1 40 0)" fill="none" fill-rule="evenodd"><circle cx="20" cy="20" r="19.5"/><path stroke-width="2" d="M17.5 15l5 5-5 5"/></g></symbol>
<symbol id="icon--cross" width="20" height="20"><g fill-rule="evenodd" opacity=".5"><path d="M2.222.808l16.97 16.97-1.414 1.414L.808 2.222z"/><path d="M.808 17.778L17.778.808l1.414 1.414-16.97 16.97z"/></g></symbol>
<symbol id="icon--hamburger" width="24" height="18"><g fill-rule="evenodd" opacity=".5"><path d="M0 0h24v2H0zM0 8h24v2H0zM0 16h24v2H0z"/></g></symbol>
</svg>
